<?xml version="1.0" encoding="UTF-8"?>
<svg version="1.1" xmlns="http://www.w3.org/2000/svg" width="1024" height="1024">
<path d="M0 0 C0.92361328 0.01869141 1.84722656 0.03738281 2.79882812 0.05664062 C4.14170898 0.11174805 4.14170898 0.11174805 5.51171875 0.16796875 C6.31440186 0.19528076 7.11708496 0.22259277 7.9440918 0.25073242 C11.22295647 1.02845303 12.90824239 2.47699976 15.3125 4.8125 C21.84032164 16.22809553 24.11463802 31.10399066 27.5 43.6875 C28.13413128 46.02621376 28.76889208 48.36475692 29.40429688 50.703125 C30.56669826 54.98185415 31.72476284 59.26171488 32.87963867 63.54248047 C33.98894664 67.64316181 35.13108766 71.73203681 36.3125 75.8125 C39.61294148 72.72174052 41.50568744 69.07067016 43.625 65.125 C49.35521291 54.64478446 55.35080847 44.32963634 61.41552734 34.04003906 C63.05832172 31.24496291 64.69046106 28.44397789 66.3183136 25.6401825 C67.97354091 22.79621122 69.64431811 19.96138578 71.3125 17.125 C71.92311279 16.06788818 72.53372559 15.01077637 73.1628418 13.92163086 C80.20807547 2.02837699 80.20807547 2.02837699 86.69921875 0.10546875 C87.45847656 0.07066406 88.21773437 0.03585937 89 0 C90.28777344 -0.06767578 90.28777344 -0.06767578 91.6015625 -0.13671875 C92.94347656 -0.16185547 92.94347656 -0.16185547 94.3125 -0.1875 C95.68535156 -0.22810547 95.68535156 -0.22810547 97.0859375 -0.26953125 C99.83427112 -0.31187252 102.5653016 -0.27159791 105.3125 -0.1875 C106.57707031 -0.16236328 106.57707031 -0.16236328 107.8671875 -0.13671875 C108.65351562 -0.09160156 109.43984375 -0.04648437 110.25 0 C110.93964844 0.03480469 111.62929688 0.06960938 112.33984375 0.10546875 C115.41171962 1.20647772 116.53450914 3.13599207 118.3125 5.8125 C118.55688477 8.53369141 118.55688477 8.53369141 118.19140625 11.5390625 C118.0639502 12.6827832 117.93649414 13.82650391 117.80517578 15.00488281 C117.64259277 16.26139648 117.48000977 17.51791016 117.3125 18.8125 C117.15255478 20.18821908 116.9949086 21.56420707 116.83935547 22.94042969 C116.24653874 28.1215581 115.60861689 33.29694285 114.96655273 38.47216797 C114.69159247 40.69717223 114.42173597 42.92275324 114.15234375 45.1484375 C113.99113037 46.45345215 113.82991699 47.7584668 113.66381836 49.10302734 C113.24936704 52.84133488 113.24936704 52.84133488 113.32250977 56.72900391 C113.3125 59.8125 113.3125 59.8125 112.3125 60.8125 C111.97162101 63.25745165 111.69000536 65.68543787 111.4453125 68.140625 C111.36610062 68.90523041 111.28688873 69.66983582 111.20527649 70.45761108 C110.94464837 72.9921175 110.69106947 75.52727846 110.4375 78.0625 C110.25796715 79.81559995 110.07836021 81.56869232 109.89868164 83.32177734 C108.98393566 92.36073143 108.16025865 101.40058709 107.48828125 110.4609375 C107.42461365 111.30672363 107.36094604 112.15250977 107.29534912 113.02392578 C106.99191906 117.07909607 106.70386425 121.1344503 106.43994141 125.19238281 C106.33407709 126.66213956 106.22781614 128.13186781 106.12109375 129.6015625 C106.03657959 130.87725098 105.95206543 132.15293945 105.86499023 133.46728516 C105.28652878 136.96975038 104.47209181 139.0132341 102.3125 141.8125 C97.9309268 143.101198 93.42348145 142.9767222 88.875 143 C87.61816406 143.01417969 86.36132812 143.02835938 85.06640625 143.04296875 C81.11175868 142.80017561 78.05718455 142.03495831 74.3125 140.8125 C73.12318828 137.23766852 73.43522457 134.34095115 73.90161133 130.62963867 C74.05539749 129.37700729 74.20918365 128.12437592 74.36763 126.83378601 C74.54309539 125.46599198 74.71873371 124.09822013 74.89453125 122.73046875 C75.07115467 121.31488173 75.24714409 119.89921547 75.42253113 118.48347473 C75.88706345 114.74835259 76.36052322 111.01441349 76.83575439 107.28063965 C77.31082639 103.53479871 77.77697435 99.78784912 78.24414062 96.04101562 C80.97020131 74.23092389 80.97020131 74.23092389 81.88070679 67.72036743 C81.97361087 67.04915265 82.06651495 66.37793787 82.16223431 65.68638325 C82.41975342 63.83488161 82.68202698 61.98404301 82.94462585 60.133255 C83.29253598 56.99271278 83.37979646 53.96883319 83.3125 50.8125 C82.41724609 52.49085938 82.41724609 52.49085938 81.50390625 54.203125 C73.30960631 69.40634527 64.37989786 84.12060599 55.3125 98.8125 C54.7978418 99.65329102 54.28318359 100.49408203 53.75292969 101.36035156 C52.53289058 103.35094169 51.3015181 105.33368781 50.0625 107.3125 C49.43859375 108.3128125 48.8146875 109.313125 48.171875 110.34375 C45.71446643 113.60652777 42.97081882 115.98334059 39.3125 117.8125 C33.82929222 118.31321209 28.91790138 118.50052916 23.8125 116.3125 C17.88385784 110.38385784 15.73189431 101.64846503 13.125 93.875 C12.341122 91.57508477 11.55592779 89.2756178 10.76953125 86.9765625 C10.36814941 85.80125977 9.96676758 84.62595703 9.55322266 83.41503906 C7.51950687 77.50998001 5.42254815 71.62814386 3.3125 65.75 C2.73399292 64.1268689 2.73399292 64.1268689 2.14379883 62.47094727 C1.60855591 60.98292603 1.60855591 60.98292603 1.0625 59.46484375 C0.59070313 58.14987915 0.59070313 58.14987915 0.109375 56.80834961 C-0.52163087 54.84686882 -0.52163087 54.84686882 -1.6875 53.8125 C-2.94105709 62.04112795 -4.1900163 70.27044932 -5.4375 78.5 C-5.62113098 79.70978516 -5.80476196 80.91957031 -5.99395752 82.16601562 C-8.61323516 99.37565174 -8.61323516 99.37565174 -11.0390625 116.61328125 C-11.13155273 117.30032639 -11.22404297 117.98737152 -11.31933594 118.69523621 C-11.72266521 121.71173306 -12.11496991 124.72926862 -12.49511719 127.7487793 C-12.62821289 128.77011963 -12.76130859 129.79145996 -12.8984375 130.84375 C-13.00462402 131.69517578 -13.11081055 132.54660156 -13.22021484 133.42382812 C-13.87254024 136.75839015 -14.5748901 139.89133669 -17.25390625 142.109375 C-21.02991898 143.20035781 -24.71571343 143.10017987 -28.625 143.0625 C-29.42357422 143.07023438 -30.22214844 143.07796875 -31.04492188 143.0859375 C-40.44521509 143.05478491 -40.44521509 143.05478491 -43.6875 139.8125 C-44.14209858 137.15786879 -44.38993238 134.49060862 -44.6875 131.8125 C-44.0275 131.8125 -43.3675 131.8125 -42.6875 131.8125 C-42.64780594 131.10020233 -42.60811188 130.38790466 -42.56721497 129.65402222 C-41.89868552 119.45208251 -40.41498899 109.42256757 -38.88671875 99.3203125 C-38.60594286 97.44347909 -38.32549819 95.5665961 -38.04536438 93.68966675 C-37.45898901 89.767607 -36.86950306 85.84603211 -36.27758789 81.92480469 C-35.52966258 76.96924395 -34.78819945 72.01274366 -34.04874992 67.05591202 C-32.29469466 55.30299603 -30.51474125 43.55427426 -28.6875 31.8125 C-28.57972481 31.11972458 -28.47194962 30.42694916 -28.36090851 29.71318054 C-27.74671791 25.78182891 -27.11086236 21.854629 -26.45703125 17.9296875 C-26.31706223 17.05200714 -26.1770932 16.17432678 -26.03288269 15.27005005 C-25.23879354 10.66624222 -24.1791659 6.84993231 -21.6875 2.8125 C-15.44919471 -1.34637019 -7.23652956 -0.30173515 0 0 Z " fill="#FEB50D" transform="translate(582.6875,426.1875)"/>
<path d="M0 0 C1.175625 1.11375 1.175625 1.11375 2.375 2.25 C2.705 1.13625 3.035 0.0225 3.375 -1.125 C4.85710972 -4.53729911 5.20213939 -4.68024923 8.9375 -6.1875 C16.36844602 -7.43054428 23.25633991 -7.22605568 30.375 -4.75 C30.83546836 5.09037938 29.85614242 14.44013988 28.44213867 24.16430664 C27.71133131 29.25650982 27.20325922 34.10493239 27.375 39.25 C26.715 39.25 26.055 39.25 25.375 39.25 C25.30587402 40.64859253 25.30587402 40.64859253 25.23535156 42.07543945 C24.68131135 52.09925801 23.72233482 62.02210447 22.43798828 71.97827148 C22.12415287 74.44415608 21.83357824 76.91214394 21.54296875 79.38085938 C19.43029031 96.38052877 14.43789173 111.04508674 0.88671875 122.43359375 C-10.09836881 130.37770839 -22.3788929 133.83340508 -35.8125 133.6875 C-36.81063721 133.67920166 -37.80877441 133.67090332 -38.8371582 133.66235352 C-52.35961225 133.35697623 -64.55343612 130.50578553 -75.625 122.25 C-77.625 119.25 -77.625 119.25 -77.484375 116.48828125 C-76.49130743 112.74622209 -74.89713076 109.69744241 -72.875 106.4375 C-72.53984375 105.85291016 -72.2046875 105.26832031 -71.859375 104.66601562 C-70.25533286 102.04425736 -69.06647715 100.44557294 -66.2265625 99.1875 C-62.7857307 99.27016263 -60.76858364 100.42263332 -57.75 102.0625 C-46.96719145 107.28942076 -35.19353969 108.81086126 -23.625 105.25 C-17.27709979 102.57550397 -13.0482123 98.17305812 -9.625 92.25 C-8.1559538 88.24351037 -7.625 85.51962529 -7.625 81.25 C-8.15867187 81.70890625 -8.69234375 82.1678125 -9.2421875 82.640625 C-19.70379875 91.25606956 -30.17281057 94.2962814 -43.625 93.25 C-53.80477402 91.18921648 -61.85509924 86.47895767 -67.9375 78 C-76.21703193 64.36177101 -77.03704235 49.62990949 -73.625 34.25 C-70.24344007 21.44534838 -63.76906155 8.95546598 -52.625 1.25 C-52.01140625 0.80269531 -51.3978125 0.35539062 -50.765625 -0.10546875 C-36.39511342 -9.90615765 -13.88704933 -11.36800318 0 0 Z M-38.15234375 25.015625 C-44.81705265 33.81499616 -46.56865223 44.81645496 -45.1875 55.62109375 C-44.19225384 60.27248725 -42.84136346 63.53526153 -38.93359375 66.55859375 C-33.72619952 69.59887038 -28.53548013 70.26781682 -22.625 69.25 C-14.26806087 66.46435362 -9.49919301 61.76658901 -4.875 54.5 C-1.27032877 45.12785481 -0.07953179 34.83419748 -3.58203125 25.296875 C-5.80916792 20.92601501 -9.16421882 18.88909177 -13.625 16.9375 C-23.04617687 14.7784803 -31.84980832 17.72982957 -38.15234375 25.015625 Z " fill="#28B5DF" transform="translate(499.625,473.75)"/>
<path d="M0 0 C0.25347093 8.80113669 -0.49418166 17.19772882 -1.75 25.90234375 C-2.02128601 27.85902029 -2.2925688 29.81569727 -2.56365967 31.77240086 C-2.94032648 34.47653732 -3.32439252 37.17960187 -3.70849609 39.88269043 C-4.38380726 44.64295544 -5.04963077 49.40454799 -5.71191406 54.16664124 C-6.06410778 56.69358925 -6.42008015 59.22001419 -6.78027344 61.74583435 C-6.94043945 62.88794876 -7.10060547 64.03006317 -7.265625 65.20678711 C-7.47880371 66.70803383 -7.47880371 66.70803383 -7.69628906 68.23960876 C-7.98392187 70.85386786 -8.05640382 73.37274068 -8 76 C-7.61287842 75.54069092 -7.22575684 75.08138184 -6.8269043 74.6081543 C-1.77255915 68.71275677 3.65840915 63.26034043 9.1875 57.8125 C10.95420186 56.07142108 12.71860727 54.32800817 14.48046875 52.58203125 C15.25285889 51.82124268 16.02524902 51.0604541 16.82104492 50.27661133 C19.04165215 47.95648109 21.01834791 45.52516668 23 43 C27.38242957 38.45525822 33.65799542 39.0822658 39.55859375 38.875 C50.3117268 38.69596761 50.3117268 38.69596761 54 41 C54.29759359 44.53007564 54.30968082 46.48438929 52.4609375 49.5625 C51.77257812 50.366875 51.08421875 51.17125 50.375 52 C49.64796875 52.85335937 48.9209375 53.70671875 48.171875 54.5859375 C45.52889864 57.52363424 42.9319307 60.34730079 40 63 C39.34 63 38.68 63 38 63 C38 63.66 38 64.32 38 65 C37.34 65 36.68 65 36 65 C35.7525 65.61875 35.505 66.2375 35.25 66.875 C33.76259631 69.40358627 32.56321991 69.71839004 30 71 C29.731875 71.58523438 29.46375 72.17046875 29.1875 72.7734375 C27.61392086 75.7238984 25.51707782 77.43719108 23 79.625 C21.6696875 80.78902344 21.6696875 80.78902344 20.3125 81.9765625 C19.549375 82.64429688 18.78625 83.31203125 18 84 C17.34 84.66 16.68 85.32 16 86 C16.36863579 89.01309633 17.51456853 91.04181849 19.265625 93.4765625 C19.73734131 94.13865723 20.20905762 94.80075195 20.69506836 95.48291016 C21.2081958 96.1897998 21.72132324 96.89668945 22.25 97.625 C22.77924072 98.36411621 23.30848145 99.10323242 23.85375977 99.86474609 C25.56279417 102.24782587 27.28081976 104.62423159 29 107 C30.17083759 108.62480931 31.34141145 110.2498087 32.51171875 111.875 C34.70044826 114.91175443 36.89317416 117.94554751 39.08984375 120.9765625 C39.82050049 121.98783203 39.82050049 121.98783203 40.56591797 123.01953125 C41.52421709 124.34294331 42.48681212 125.66325495 43.45361328 126.98046875 C48 133.22258767 48 133.22258767 48 137 C46.56516399 139.23196713 45.49013726 139.86607255 42.94140625 140.5625 C38.97117613 141.1530256 35.07153499 141.22381855 31.0625 141.25 C29.88397461 141.2809375 29.88397461 141.2809375 28.68164062 141.3125 C23.70342055 141.345827 20.1906671 140.95674845 16 138 C13.73702667 135.49218777 11.84200959 132.78574475 9.9375 130 C9.38674805 129.21705566 8.83599609 128.43411133 8.26855469 127.62744141 C3.45341467 120.75353608 -1.27132486 113.81156139 -5.94946289 106.84375 C-6.46629639 106.07804688 -6.98312988 105.31234375 -7.515625 104.5234375 C-8.20060059 103.5012915 -8.20060059 103.5012915 -8.89941406 102.45849609 C-9.26260742 101.97719238 -9.62580078 101.49588867 -10 101 C-10.33 101 -10.66 101 -11 101 C-11.13575439 102.03930664 -11.27150879 103.07861328 -11.41137695 104.14941406 C-11.91923283 108.0125917 -12.44295027 111.87348171 -12.97143555 115.73388672 C-13.19776246 117.40355399 -13.41980941 119.07380733 -13.63745117 120.74462891 C-13.95142503 123.14913938 -14.28083869 125.55110712 -14.61328125 127.953125 C-14.70716629 128.69806213 -14.80105133 129.44299927 -14.89778137 130.21051025 C-15.46997299 134.22320773 -16.07795645 137.09450412 -19 140 C-23.04596896 141.34628192 -27.26616585 141.16633083 -31.5 141.1875 C-32.7890625 141.20167969 -34.078125 141.21585938 -35.40625 141.23046875 C-38.96902743 141.00198628 -42.3666161 140.6333839 -45 138 C-44.96716446 123.57328077 -42.53217601 109.07891615 -40.7265625 94.80078125 C-40.39877237 92.19005092 -40.07108658 89.57930748 -39.74349976 86.96855164 C-39.05998949 81.5293733 -38.37139692 76.09085318 -37.68066406 70.65258789 C-36.88371256 64.37679895 -36.09936398 58.09951808 -35.32058585 51.82145053 C-34.56668596 45.74928223 -33.7999545 39.67879866 -33.02842331 33.60884666 C-32.70329775 31.03728857 -32.38198409 28.46524554 -32.06456375 25.89272499 C-31.62124844 22.30890642 -31.16331586 18.72724755 -30.70166016 15.14575195 C-30.57375595 14.08547791 -30.44585175 13.02520386 -30.31407166 11.93280029 C-29.10891881 2.80123803 -29.10891881 2.80123803 -26 -1 C-24.1340332 -1.69116211 -24.1340332 -1.69116211 -22.05078125 -1.77734375 C-21.28443359 -1.81537109 -20.51808594 -1.85339844 -19.72851562 -1.89257812 C-18.93123047 -1.90740234 -18.13394531 -1.92222656 -17.3125 -1.9375 C-16.53455078 -1.97939453 -15.75660156 -2.02128906 -14.95507812 -2.06445312 C-9.60428642 -2.26527517 -5.13303632 -1.5076461 0 0 Z " fill="#3075D3" transform="translate(160,428)"/>
<path d="M0 0 C8.7741376 8.16482249 13.36632124 17.94570537 14.203125 29.90234375 C14.4584406 46.43402915 10.69769637 62.16276435 0 75 C-0.86625 76.2684375 -0.86625 76.2684375 -1.75 77.5625 C-11.21120633 87.81214019 -25.23925507 93.71408215 -39.05078125 94.3359375 C-54.42500744 94.60175761 -66.21535968 92.75324554 -78 82 C-87.6531565 70.8617425 -89.88355131 57.31037568 -89 43 C-86.65238524 26.929196 -79.91884588 11.40990477 -67 1 C-47.49267091 -12.40960243 -19.48348066 -15.33805924 0 0 Z M-51.43359375 21.921875 C-58.6192579 31.45497557 -61.02148113 42.51011083 -59.7578125 54.25 C-58.78297628 60.13880656 -56.57768683 64.12657269 -52 68 C-46.48303849 70.88386624 -39.84946278 70.76021707 -33.82421875 69.5703125 C-26.91191571 67.39595698 -22.1260477 62.45555375 -18.6875 56.1875 C-14.32096786 46.44244972 -13.35269063 35.2154419 -16.6875 25.0625 C-18.40867654 20.83779395 -19.85725815 18.21588517 -24 16 C-34.24550618 12.27436139 -43.9834288 13.6938506 -51.43359375 21.921875 Z " fill="#2C84E1" transform="translate(299,476)"/>
<path d="M0 0 C6.0301574 6.08282253 9.00890852 14.57491909 9.13395691 23.01490784 C9.12971207 23.81049606 9.12546722 24.60608429 9.12109375 25.42578125 C9.11635796 26.71397011 9.11635796 26.71397011 9.11152649 28.02818298 C8.92426213 39.17160834 7.44325987 50.18732864 5.96313477 61.2199707 C5.4697181 64.91849129 5.00433235 68.61986638 4.54101562 72.32226562 C4.23341528 74.68250656 3.9242311 77.04254176 3.61328125 79.40234375 C3.47564865 80.50530289 3.33801605 81.60826202 3.19621277 82.74464417 C3.0562941 83.76098434 2.91637543 84.77732452 2.7722168 85.82446289 C2.59567818 87.16294029 2.59567818 87.16294029 2.41557312 88.52845764 C1.69184436 91.15789912 0.96191121 92.18218151 -1.2109375 93.8046875 C-10.01664384 95.59844249 -19.76152014 96.01445115 -28.2109375 92.8046875 C-28.39468779 85.73327972 -27.69339261 79.07289341 -26.64453125 72.0859375 C-26.32070553 69.83206831 -25.9971459 67.57816087 -25.67382812 65.32421875 C-25.1620651 61.80845834 -24.64674829 58.29328237 -24.1262207 54.77880859 C-23.62260644 51.36168196 -23.13282753 47.94278175 -22.64453125 44.5234375 C-22.48625351 43.48255981 -22.32797577 42.44168213 -22.16490173 41.3692627 C-21.14072158 34.12854037 -20.11047315 26.28673655 -24.2109375 19.8046875 C-30.07178701 16.82285178 -34.82911104 16.00840418 -41.2109375 17.8046875 C-47.53612961 20.45535254 -51.42890875 24.57208046 -54.2109375 30.8046875 C-56.26735391 37.01213479 -57.05542815 43.24879163 -57.8671875 49.72265625 C-58.17049342 52.05144265 -58.47388127 54.38021837 -58.77734375 56.70898438 C-59.24688549 60.36259067 -59.71403098 64.01648861 -60.17919922 67.6706543 C-60.63163053 71.2096356 -61.09275512 74.74740452 -61.5546875 78.28515625 C-61.69120728 79.37998825 -61.82772705 80.47482025 -61.96838379 81.60282898 C-62.10192261 82.62101212 -62.23546143 83.63919525 -62.37304688 84.68823242 C-62.5438678 86.02890022 -62.5438678 86.02890022 -62.71813965 87.39665222 C-63.22758417 89.88603074 -63.80096564 91.68855187 -65.2109375 93.8046875 C-68.03665664 94.45677653 -70.33552473 94.70612641 -73.2109375 94.8046875 C-74.92603516 94.86462891 -74.92603516 94.86462891 -76.67578125 94.92578125 C-88.38367237 95.13463135 -88.38367237 95.13463135 -92.2109375 92.8046875 C-93.32305237 89.09197619 -93.17597286 86.01375893 -92.65356445 82.20532227 C-92.50623367 81.10128555 -92.35890289 79.99724884 -92.20710754 78.85975647 C-92.03950424 77.66724777 -91.87190094 76.47473907 -91.69921875 75.24609375 C-91.52972214 73.992556 -91.36022552 72.73901825 -91.18559265 71.44749451 C-90.73100361 68.0962369 -90.26940172 64.7460999 -89.80426025 61.39630127 C-89.34899721 58.1067512 -88.90240713 54.81602757 -88.45507812 51.52539062 C-87.92169029 47.60181083 -87.38603027 43.67862957 -86.84207153 39.75650024 C-85.89754718 32.93613066 -84.99298745 26.11472947 -84.15380859 19.28076172 C-83.89527643 17.21330383 -83.63574964 15.14597343 -83.37584496 13.07868767 C-83.13436322 11.12615433 -82.90581357 9.17203541 -82.67756653 7.21791077 C-82.5289769 6.03990402 -82.38038727 4.86189728 -82.22729492 3.64819336 C-82.10287521 2.61319199 -81.97845551 1.57819061 -81.8502655 0.51182556 C-81.1539028 -2.43681733 -80.27860506 -4.00158934 -78.2109375 -6.1953125 C-71.28227927 -8.15625351 -62.1905022 -7.76375401 -55.2109375 -6.1953125 C-53.2658375 -3.2776625 -52.75817433 -1.56993965 -52.2109375 1.8046875 C-51.6540625 1.40636719 -51.0971875 1.00804687 -50.5234375 0.59765625 C-35.41740651 -9.88980783 -15.10902517 -12.0992592 0 0 Z " fill="#2A96E7" transform="translate(408.2109375,474.1953125)"/>
<path d="M0 0 C1.27520508 -0.02416992 1.27520508 -0.02416992 2.57617188 -0.04882812 C3.39794922 -0.04947266 4.21972656 -0.05011719 5.06640625 -0.05078125 C5.80963135 -0.05376221 6.55285645 -0.05674316 7.31860352 -0.05981445 C10.11979245 0.43238662 11.46614557 1.26592651 13.4375 3.3125 C13.69946289 5.53613281 13.69946289 5.53613281 13.34765625 8.265625 C13.2202002 9.33748047 13.09274414 10.40933594 12.96142578 11.51367188 C12.78853027 12.76728516 12.61563477 14.02089844 12.4375 15.3125 C12.24694478 16.80253185 12.05807341 18.2927797 11.87060547 19.78320312 C11.1117922 25.75034149 10.33148253 31.7147529 9.51879883 37.67480469 C5.62669261 57.77428898 5.62669261 57.77428898 10.4375 76.3125 C14.40392059 78.95678039 18.46425333 78.43413941 23.0078125 77.84765625 C28.2401275 76.69520102 32.09529142 73.34445712 35.35243225 69.18104553 C39.58725219 61.88845584 40.11292921 52.43824312 40.97265625 44.22265625 C41.15893837 42.56223549 41.15893837 42.56223549 41.34898376 40.86827087 C41.74089427 37.37136698 42.12169669 33.87340028 42.5 30.375 C42.88228633 26.85166245 43.26722728 23.32873946 43.66172791 19.80674744 C43.90608334 17.62506167 44.1434752 15.44258191 44.37306213 13.2592926 C44.5384977 11.78141518 44.5384977 11.78141518 44.70727539 10.27368164 C44.84692467 8.97775841 44.84692467 8.97775841 44.98939514 7.65565491 C45.45150171 5.23928462 46.23278859 3.44573196 47.4375 1.3125 C51.74998609 1.28363463 56.06244762 1.26574745 60.375 1.25 C61.60669922 1.24162109 62.83839844 1.23324219 64.10742188 1.22460938 C65.27724609 1.22138672 66.44707031 1.21816406 67.65234375 1.21484375 C69.27837524 1.20698853 69.27837524 1.20698853 70.93725586 1.19897461 C73.4375 1.3125 73.4375 1.3125 74.4375 2.3125 C75.0157924 9.99168511 74.14034524 17.42257119 72.875 24.98828125 C72.35410764 28.30834238 72.35410764 28.30834238 72.5 31.66796875 C72.44968435 34.60199989 72.19543113 36.65480655 71.50976562 39.43969727 C70.40353352 44.24361149 69.76494321 49.02665095 69.21875 53.921875 C69.11534302 54.8105426 69.01193604 55.69921021 68.90539551 56.61480713 C68.57833975 59.4302152 68.25745929 62.24627738 67.9375 65.0625 C64.09147027 98.65852973 64.09147027 98.65852973 61.4375 101.3125 C57.61955054 102.74079764 53.52444703 102.53315125 49.5 102.5625 C48.79681641 102.583125 48.09363281 102.60375 47.36914062 102.625 C42.88994007 102.65858351 39.91210435 102.22347578 36.4375 99.3125 C35.625 95.625 35.625 95.625 35.4375 92.3125 C34.97601562 92.77140625 34.51453125 93.2303125 34.0390625 93.703125 C27.56930977 99.78929555 20.40117993 103.53304957 11.4375 104.3125 C10.261875 104.415625 9.08625 104.51875 7.875 104.625 C-0.94747677 104.45566263 -9.67820873 101.45312127 -15.98046875 95.23046875 C-23.92092329 85.603893 -24.25137272 73.95402555 -23.30157471 62.03933716 C-22.93683798 58.56409529 -22.52913099 55.09697318 -22.1015625 51.62890625 C-21.95093353 50.37037338 -21.80030457 49.11184052 -21.64511108 47.81517029 C-21.32744356 45.17682138 -21.00699073 42.53900406 -20.68164062 39.90161133 C-20.26631592 36.53159188 -19.86373915 33.16019001 -19.46482277 29.7881937 C-19.0796338 26.54677935 -18.68390316 23.30665688 -18.2890625 20.06640625 C-18.14626862 18.86117813 -18.00347473 17.65595001 -17.85635376 16.41419983 C-17.71635956 15.29210617 -17.57636536 14.17001251 -17.43212891 13.01391602 C-17.31221588 12.03084976 -17.19230286 11.04778351 -17.0687561 10.03492737 C-16.54660116 7.22700289 -15.80208356 4.88386245 -14.5625 2.3125 C-10.1932489 -0.47405513 -5.01337104 -0.01909128 0 0 Z " fill="#FDA017" transform="translate(727.5625,466.6875)"/>
<path d="M0 0 C0.75925781 0.04382813 1.51851562 0.08765625 2.30078125 0.1328125 C5.71120661 1.19333757 7.26176273 3.27935267 9.6875 5.875 C11.85298211 7.84173475 14.08358283 9.73069771 16.3125 11.625 C16.92496582 12.14868164 17.53743164 12.67236328 18.16845703 13.21191406 C21.92042432 16.4089374 25.72150029 19.53503375 29.5625 22.625 C41.8574821 32.68453081 52.00633346 44.71211871 54.6875 60.875 C55.72224188 72.3566551 53.08010277 82.96087719 45.6875 91.875 C38.42363142 99.97862218 38.42363142 99.97862218 33.6875 101.875 C30.6433153 101.73003882 29.25231063 101.46240305 27.125 99.25 C26.42336646 95.4411322 28.67865849 92.94281547 30.6875 89.875 C35.20095875 82.40983293 36.53160802 76.61672142 35.6875 67.875 C32.82336167 57.36821276 26.98125474 51.29207804 17.6875 45.875 C16.30448565 45.31718241 14.9114385 44.78377242 13.51074219 44.27197266 C12.7937616 44.00840973 12.07678101 43.7448468 11.33807373 43.47329712 C10.7933844 43.27585907 10.24869507 43.07842102 9.6875 42.875 C9.69194122 43.64126709 9.69638245 44.40753418 9.70095825 45.19702148 C9.74137521 52.4912373 9.77165471 59.78539726 9.79112434 67.07969666 C9.80147099 70.82792009 9.81545874 74.57604944 9.83837891 78.32421875 C9.86043866 81.95526018 9.87213674 85.5862123 9.87725449 89.21731567 C9.88263712 91.24638825 9.89819382 93.27542593 9.91409302 95.30444336 C9.91740684 123.38624638 9.91740684 123.38624638 1.6875 133.875 C-5.29716566 140.77076991 -13.40941308 144.875 -23.3125 144.875 C-30.50553772 144.10259326 -36.45052072 141.73697928 -41.625 136.5625 C-44.92830567 131.30167985 -45.86720613 126.28619184 -44.9765625 120.20703125 C-42.72639531 112.30497352 -36.51147431 105.91156906 -29.546875 101.84375 C-22.4783402 98.63617959 -13.7013581 98.89165401 -6.3125 100.875 C-6.37671143 99.80644775 -6.44092285 98.73789551 -6.50708008 97.63696289 C-7.45645377 80.59198999 -7.68632934 63.53354227 -7.92504883 46.46704102 C-7.98630103 42.12844651 -8.06050764 37.79016818 -8.13742352 33.45182705 C-8.19489533 30.08478935 -8.24322965 26.71766559 -8.289011 23.35045052 C-8.31234276 21.74882783 -8.33907416 20.1472508 -8.36932945 18.54574394 C-8.41043489 16.32404759 -8.43863092 14.10254317 -8.46362305 11.88061523 C-8.49240791 9.99039894 -8.49240791 9.99039894 -8.52177429 8.06199646 C-8.32211622 5.02144351 -8.0206304 3.36265225 -6.3125 0.875 C-3.91534579 -0.32357711 -2.65450348 -0.20522212 0 0 Z " fill="#F35C4F" transform="translate(851.3125,426.125)"/>
<path d="M0 0 C0.33 0 0.66 0 1 0 C2.90521836 9.04978719 1.83478873 17.81732402 1 27 C8.92 27 16.84 27 25 27 C25.53763068 20.27014955 25.53763068 20.27014955 26.04614258 13.53808594 C26.11986084 12.69536133 26.1935791 11.85263672 26.26953125 10.984375 C26.33760986 10.12553711 26.40568848 9.26669922 26.47583008 8.38183594 C27.08287279 5.62342479 28.17288718 4.12125437 30 2 C30.11406092 7.61433178 30.00679151 13.2057411 29.6875 18.8125 C29.60048828 20.39998047 29.60048828 20.39998047 29.51171875 22.01953125 C28.92732612 25.42328375 28.22925548 27.35246204 26 30 C21.6184268 31.288698 17.11098145 31.1642222 12.5625 31.1875 C11.30566406 31.20167969 10.04882812 31.21585938 8.75390625 31.23046875 C4.79925868 30.98767561 1.74468455 30.22245831 -2 29 C-3.13874184 25.52192588 -2.90158296 22.74841044 -2.44140625 19.140625 C-2.30283203 18.02558594 -2.16425781 16.91054688 -2.02148438 15.76171875 C-1.87001953 14.60285156 -1.71855469 13.44398438 -1.5625 12.25 C-1.41490234 11.07566406 -1.26730469 9.90132812 -1.11523438 8.69140625 C-0.75003523 5.79337432 -0.37805032 2.8963788 0 0 Z " fill="#FEAE14" transform="translate(659,538)"/>
<path d="M0 0 C0.66 0 1.32 0 2 0 C3.00632671 3.34181128 3.12672708 6.38114213 3.12939453 9.86328125 C3.13254669 11.0455127 3.13569885 12.22774414 3.13894653 13.44580078 C3.1369223 14.72181152 3.13489807 15.99782227 3.1328125 17.3125 C3.13376923 18.63233887 3.13472595 19.95217773 3.13571167 21.31201172 C3.13718562 24.10954964 3.13504653 26.90705564 3.13037109 29.70458984 C3.12471825 33.25689794 3.12792624 36.80912973 3.13394356 40.36143494 C3.1375954 43.11900381 3.13638886 45.87655529 3.13381577 48.63412476 C3.13284007 50.57029266 3.13583557 52.5064613 3.13894653 54.44262695 C3.11918791 62.01125453 2.76061405 69.4691077 2 77 C1.01 77 0.02 77 -1 77 C-0.67 51.59 -0.34 26.18 0 0 Z " fill="#F6593A" transform="translate(858,468)"/>
<path d="M0 0 C0.33 0 0.66 0 1 0 C1.01030746 0.72122543 1.02061493 1.44245087 1.03123474 2.18553162 C1.13075882 9.10909829 1.23343786 16.03261241 1.33933926 22.95608425 C1.39363224 26.51228652 1.44686071 30.06849689 1.49731445 33.62475586 C1.7507959 51.42848977 2.17100121 69.21186257 3 87 C-1.80713905 88.36812926 -6.59099081 87.9849117 -11.53710938 87.78515625 C-16.84755616 87.68149181 -20.21207623 88.72796661 -25 91 C-25.99 91 -26.98 91 -28 91 C-23.66627929 86.15642979 -20.22934268 84.22628411 -13.7109375 83.76953125 C-12.61007812 83.78371094 -11.50921875 83.79789063 -10.375 83.8125 C-9.26898437 83.81894531 -8.16296875 83.82539062 -7.0234375 83.83203125 C-4.48404966 83.97310835 -2.43141447 84.34281666 0 85 C-0.11589478 83.53759888 -0.11589478 83.53759888 -0.23413086 82.0456543 C-1.35028563 66.0686554 -0.90902958 50.09777777 -0.60510254 34.10028076 C-0.53330425 30.2446713 -0.46916422 26.38893432 -0.40429688 22.53320312 C-0.27684377 15.02199407 -0.14117794 7.510965 0 0 Z " fill="#F84337" transform="translate(845,442)"/>
<path d="M0 0 C0.33 0 0.66 0 1 0 C1.05830787 3.39576062 1.09369946 6.7913915 1.125 10.1875 C1.14175781 11.14720703 1.15851562 12.10691406 1.17578125 13.09570312 C1.18222656 14.02705078 1.18867187 14.95839844 1.1953125 15.91796875 C1.20578613 16.77156982 1.21625977 17.6251709 1.22705078 18.50463867 C0.96829818 21.34841321 0.26445996 23.44545471 -1 26 C-5.06734427 28.48684769 -9.4281654 28.30097343 -14.0625 28.25 C-14.76955078 28.25773438 -15.47660156 28.26546875 -16.20507812 28.2734375 C-20.27036012 28.25816884 -22.26634128 27.86682936 -26 26 C-26 22.7 -26 19.4 -26 16 C-25.01 16 -24.02 16 -23 16 C-23.33 18.97 -23.66 21.94 -24 25 C-17.4 24.67 -10.8 24.34 -4 24 C-2.17425775 19.43564438 -1.80746824 17.75779538 -2 13.125 C-2.09590549 8.26978453 -1.65388049 4.54817135 0 0 Z " fill="#FC851F" transform="translate(791,541)"/>
<path d="M0 0 C0.66 0 1.32 0 2 0 C1.67 25.41 1.34 50.82 1 77 C0.67 77 0.34 77 0 77 C-0.1536773 67.25584144 -0.30185902 57.51161645 -0.4429636 47.76726723 C-0.5086533 43.24291015 -0.57625837 38.71859837 -0.64819336 34.19433594 C-0.71750393 29.83074999 -0.78184517 25.46711684 -0.84269524 21.103405 C-0.86682939 19.43596089 -0.89277474 17.76854202 -0.92053413 16.10115433 C-0.95901565 13.77141517 -0.99114109 11.44167066 -1.02172852 9.11181641 C-1.03467453 8.41770157 -1.04762054 7.72358673 -1.06095886 7.00843811 C-1.11405216 2.22810432 -1.11405216 2.22810432 0 0 Z " fill="#F66F4E" transform="translate(844,429)"/>
<path d="M0 0 C0.99 0.33 1.98 0.66 3 1 C1.73046875 2.46484375 0.4609375 3.9296875 -0.80859375 5.39453125 C-4.10774395 9.84027135 -3.50638811 15.75264491 -3 21 C-1.94415725 24.67863686 -0.2455765 27.20130973 3.046875 29.3125 C5.00429093 30.31203154 6.95380574 31.20039496 9 32 C9 32.33 9 32.66 9 33 C6.01950007 33.43617072 3.82871499 33.45631775 1.1484375 31.98046875 C-3.76641113 28.18453247 -6.01692782 24.11126316 -7 18 C-7.52644183 10.56561413 -4.43722037 5.73989057 0 0 Z " fill="#F64C3D" transform="translate(813,535)"/>
<path d="M0 0 C0.66 0 1.32 0 2 0 C1.91621094 1.28132813 1.83242187 2.56265625 1.74609375 3.8828125 C1.13043042 14.05258557 0.90746485 23.84782719 2 34 C1.34 34 0.68 34 0 34 C-2.91067056 22.4872584 -2.59149774 11.54604799 0 0 Z " fill="#2F77D8" transform="translate(212,508)"/>
<path d="M0 0 C1.30710937 -0.01836914 1.30710937 -0.01836914 2.640625 -0.03710938 C3.88972656 -0.04000977 3.88972656 -0.04000977 5.1640625 -0.04296875 C5.92412598 -0.04707764 6.68418945 -0.05118652 7.46728516 -0.05541992 C9.375 0.1875 9.375 0.1875 11.375 2.1875 C8.58054192 3.11898603 6.6471537 3.3608824 3.7421875 3.46875 C2.40994141 3.52482422 2.40994141 3.52482422 1.05078125 3.58203125 C-0.82420771 3.65263753 -2.69920785 3.7229476 -4.57421875 3.79296875 C-5.45980469 3.83035156 -6.34539063 3.86773437 -7.2578125 3.90625 C-8.47815186 3.95168945 -8.47815186 3.95168945 -9.72314453 3.99804688 C-11.63429631 3.98561868 -11.63429631 3.98561868 -12.625 5.1875 C-12.85575082 6.53497084 -13.03653063 7.89127565 -13.1875 9.25 C-13.4040625 11.1990625 -13.4040625 11.1990625 -13.625 13.1875 C-14.615 13.1875 -15.605 13.1875 -16.625 13.1875 C-16.51101335 11.56169034 -16.38344341 9.93682843 -16.25 8.3125 C-16.18039062 7.40757812 -16.11078125 6.50265625 -16.0390625 5.5703125 C-15.625 3.1875 -15.625 3.1875 -13.625 1.1875 C-9.19332279 -0.28835757 -4.61836562 0.00344654 0 0 Z " fill="#FEAD0C" transform="translate(727.625,466.8125)"/>
<path d="M0 0 C0.33 0.66 0.66 1.32 1 2 C13.375 1.505 13.375 1.505 26 1 C26 1.99 26 2.98 26 4 C17.77058993 5.31670561 8.05795783 6.51312546 0 4 C0 2.68 0 1.36 0 0 Z " fill="#3191E2" transform="translate(317,564)"/>
<path d="M0 0 C0.33 0.66 0.66 1.32 1 2 C0.67 2.66 0.34 3.32 0 4 C-7.56883019 5.45554427 -18.2055394 7.17232653 -25 3 C-25 2.67 -25 2.34 -25 2 C-24.27820557 1.97494385 -23.55641113 1.9498877 -22.81274414 1.92407227 C-19.562465 1.80848698 -16.31250312 1.68559226 -13.0625 1.5625 C-11.92619141 1.52318359 -10.78988281 1.48386719 -9.61914062 1.44335938 C-7.99975586 1.38051758 -7.99975586 1.38051758 -6.34765625 1.31640625 C-5.34742432 1.27974854 -4.34719238 1.24309082 -3.31665039 1.20532227 C-1.03930812 1.25328159 -1.03930812 1.25328159 0 0 Z " fill="#258CE0" transform="translate(407,564)"/>
<path d="M0 0 C2.01362453 4.02724906 0.41158984 9.70117282 0 14 C6.27 14 12.54 14 19 14 C18.67 14.66 18.34 15.32 18 16 C14.85418577 16.02888514 11.70840531 16.04675923 8.5625 16.0625 C7.66466797 16.07087891 6.76683594 16.07925781 5.84179688 16.08789062 C4.56079102 16.09272461 4.56079102 16.09272461 3.25390625 16.09765625 C2.46314697 16.10289307 1.6723877 16.10812988 0.85766602 16.11352539 C-1 16 -1 16 -2 15 C-2.2857653 9.47520423 -1.74511597 5.23534791 0 0 Z " fill="#FCA006" transform="translate(542,552)"/>
<path d="M0 0 C0.66 0 1.32 0 2 0 C1.49396008 2.16874252 1.00016187 3.99967627 0 6 C-0.75137168 8.8707236 -0.75137168 8.8707236 0 12 C3.26662379 14.85639661 6.90658313 16.63552771 11 18 C11.33 18.99 11.66 19.98 12 21 C6.45334658 19.57778117 1.20160372 16.91854831 -3 13 C-4.04270306 10.13025971 -4.22727957 8.65442811 -3.22265625 5.76171875 C-2.83980469 5.07722656 -2.45695312 4.39273438 -2.0625 3.6875 C-1.68222656 2.99011719 -1.30195313 2.29273438 -0.91015625 1.57421875 C-0.60980469 1.05472656 -0.30945313 0.53523437 0 0 Z " fill="#2FAADD" transform="translate(426,582)"/>
<path d="M0 0 C-2.46480586 1.64320391 -4.91712802 3.12039648 -7.5 4.5625 C-8.2734375 4.99691406 -9.046875 5.43132812 -9.84375 5.87890625 C-12 7 -12 7 -15 8 C-15.28875 8.598125 -15.5775 9.19625 -15.875 9.8125 C-17.35537318 12.69100341 -19.42278571 14.10099999 -22 16 C-22.33 15.01 -22.66 14.02 -23 13 C-17.23669669 6.5496804 -9.35563 -1.47720474 0 0 Z " fill="#2876D8" transform="translate(248,471)"/>
<path d="M0 0 C4.13304044 1.34647833 6.30793614 3.02592549 9.125 6.3125 C9.78757812 7.07175781 10.45015625 7.83101563 11.1328125 8.61328125 C14.3751106 12.75772505 16.46099694 15.62170232 16 21 C13.86231472 18.4042393 11.88847966 15.82732335 10.0625 13 C8.08687175 9.93133717 8.08687175 9.93133717 5.4375 7.4375 C3.09563643 5.09563643 1.57238242 2.89649394 0 0 Z " fill="#F8523E" transform="translate(873,472)"/>
<path d="M0 0 C2.8125 2.375 2.8125 2.375 5 5 C5.763125 5.53625 6.52625 6.0725 7.3125 6.625 C7.869375 7.07875 8.42625 7.5325 9 8 C9 8.99 9 9.98 9 11 C6.13302508 9.71480435 4.02392288 8.42870746 2 6 C2 5.34 2 4.68 2 4 C-1.9813783 2.6728739 -5.85045227 2.93084087 -10 3 C-10.33 2.01 -10.66 1.02 -11 0 C-7.49294019 -1.75352991 -3.70929564 -0.95308291 0 0 Z " fill="#F85D37" transform="translate(856,427)"/>
<path d="M0 0 C7.26 0 14.52 0 22 0 C22 0.66 22 1.32 22 2 C18.46502138 3.17832621 15.24106929 3.18397309 11.5625 3.1875 C10.24378906 3.20167969 8.92507813 3.21585938 7.56640625 3.23046875 C4.3449133 3.02228903 2.66079001 2.72168766 0 1 C0 0.67 0 0.34 0 0 Z " fill="#FD9E13" transform="translate(660,566)"/>
<path d="M0 0 C0.33 0.66 0.66 1.32 1 2 C-1.54824372 8.30794757 -5.9219303 12.18451245 -12 15 C-15.69279794 16.14727703 -19.14334044 16.07416653 -23 16 C-23 15.67 -23 15.34 -23 15 C-22.443125 14.92523437 -21.88625 14.85046875 -21.3125 14.7734375 C-11.63836582 13.10661033 -5.89331727 7.54523196 0 0 Z " fill="#FD9111" transform="translate(766,532)"/>
<path d="M0 0 C0 0.99 0 1.98 0 3 C-5.68699563 7.6659484 -11.83924633 9.84503973 -19 11 C-19.33 10.01 -19.66 9.02 -20 8 C-18.67935547 7.63648438 -18.67935547 7.63648438 -17.33203125 7.265625 C-15.58986328 6.76289062 -15.58986328 6.76289062 -13.8125 6.25 C-12.66394531 5.92515625 -11.51539063 5.6003125 -10.33203125 5.265625 C-6.74477711 3.90305719 -3.66528806 0 0 0 Z " fill="#F54541" transform="translate(850,560)"/>
<path d="M0 0 C0.33 0 0.66 0 1 0 C1.56081859 9.61700032 -0.15190851 18.61653547 -2 28 C-2.33 28 -2.66 28 -3 28 C-3.27865789 18.2624549 -2.41556699 9.42288745 0 0 Z " fill="#2567CA" transform="translate(124,496)"/>
<path d="M0 0 C8.25 0 16.5 0 25 0 C25 0.66 25 1.32 25 2 C24.31373535 2.02505615 23.6274707 2.0501123 22.92041016 2.07592773 C19.82174183 2.19171427 16.72339077 2.31451885 13.625 2.4375 C12.54476562 2.47681641 11.46453125 2.51613281 10.3515625 2.55664062 C9.3203125 2.59853516 8.2890625 2.64042969 7.2265625 2.68359375 C6.27346191 2.72025146 5.32036133 2.75690918 4.33837891 2.79467773 C1.97867651 2.85763465 1.97867651 2.85763465 0 4 C0 2.68 0 1.36 0 0 Z " fill="#FE8F0A" transform="translate(775,468)"/>
<path d="M0 0 C0.33 0 0.66 0 1 0 C1.51998897 9.99534362 -0.05951027 19.25134921 -2 29 C-2.33 29 -2.66 29 -3 29 C-3.1398937 18.94319765 -3.0718869 9.62524563 0 0 Z " fill="#2787E4" transform="translate(326,486)"/>
<path d="M0 0 C1.13874184 3.47807412 0.90158296 6.25158956 0.44140625 9.859375 C0.30283203 10.97441406 0.16425781 12.08945312 0.02148438 13.23828125 C-0.12998047 14.39714844 -0.28144531 15.55601562 -0.4375 16.75 C-0.58509766 17.92433594 -0.73269531 19.09867188 -0.88476562 20.30859375 C-1.24996477 23.20662568 -1.62194968 26.1036212 -2 29 C-2.33 29 -2.66 29 -3 29 C-4.33257403 16.33029613 -4.33257403 16.33029613 -3 11 C-2.34 11 -1.68 11 -1 11 C-1.14308594 10.06027344 -1.14308594 10.06027344 -1.2890625 9.1015625 C-1.39992188 8.28429687 -1.51078125 7.46703125 -1.625 6.625 C-1.74101563 5.81289063 -1.85703125 5.00078125 -1.9765625 4.1640625 C-1.98429688 3.44992187 -1.99203125 2.73578125 -2 2 C-1.34 1.34 -0.68 0.68 0 0 Z " fill="#44B6D6" transform="translate(524,516)"/>
<path d="M0 0 C0 4.05894388 -1.58656023 5.35617706 -4.2265625 8.28125 C-8.06660281 12.00287497 -11.46718497 13.90267841 -16.9375 14.25 C-17.948125 14.1675 -18.95875 14.085 -20 14 C-17.42036472 12.28024315 -15.05405945 11.08825997 -12.25 9.8125 C-7.19501594 7.33689197 -3.67323602 4.22057251 0 0 Z " fill="#FC8813" transform="translate(764,554)"/>
<path d="M0 0 C0.33 0 0.66 0 1 0 C1.21705681 11.87783126 0.99081432 23.26841562 -1 35 C-1.33 35 -1.66 35 -2 35 C-2.89316269 29.06390334 -2.97040422 23.93024803 -2 18 C-1.34 18 -0.68 18 0 18 C0 12.06 0 6.12 0 0 Z " fill="#41AAEB" transform="translate(416,491)"/>
<path d="M0 0 C0.33 0 0.66 0 1 0 C1.72526532 7.84402334 2.21074074 15.19744856 1 23 C0.01 23.33 -0.98 23.66 -2 24 C-1.03644647 7.1070615 -1.03644647 7.1070615 0 0 Z " fill="#FEB014" transform="translate(710,483)"/>
<path d="M0 0 C1.05997192 0.2309436 1.05997192 0.2309436 2.14135742 0.46655273 C5.01704291 1.00318035 7.82306497 1.30131537 10.73828125 1.53515625 C11.80498047 1.62216797 12.87167969 1.70917969 13.97070312 1.79882812 C15.07349609 1.88583984 16.17628906 1.97285156 17.3125 2.0625 C18.99569336 2.19881836 18.99569336 2.19881836 20.71289062 2.33789062 C23.47506047 2.561215 26.23741934 2.78182631 29 3 C29 3.33 29 3.66 29 4 C25.10430865 4.08732726 21.20887018 4.14050185 17.3125 4.1875 C16.20970703 4.21263672 15.10691406 4.23777344 13.97070312 4.26367188 C12.90400391 4.27333984 11.83730469 4.28300781 10.73828125 4.29296875 C9.75899658 4.3086792 8.77971191 4.32438965 7.77075195 4.34057617 C4.52615413 3.94175566 2.63373616 2.89925678 0 1 C0 0.67 0 0.34 0 0 Z " fill="#2070D6" transform="translate(235,565)"/>
<path d="M0 0 C0.99 0 1.98 0 3 0 C4.75390625 2.265625 4.75390625 2.265625 6.5625 5.25 C7.16191406 6.22453125 7.76132812 7.1990625 8.37890625 8.203125 C10.85462723 12.47448939 12.27834831 14.98973044 12 20 C9.75550342 17.17648836 8.10862332 14.37946286 6.5625 11.125 C4.63167448 7.16973318 2.54697392 3.58462996 0 0 Z " fill="#F5503A" transform="translate(891,461)"/>
<path d="M0 0 C1 3 1 3 -0.109375 5.33984375 C-0.65078125 6.19707031 -1.1921875 7.05429687 -1.75 7.9375 C-2.28109375 8.79214844 -2.8121875 9.64679687 -3.359375 10.52734375 C-4.83443227 12.75046577 -6.37234254 14.88698685 -8 17 C-8.66 16.67 -9.32 16.34 -10 16 C-6.93978541 10.46807362 -3.5552157 5.22616707 0 0 Z " fill="#F4493C" transform="translate(888,507)"/>
<path d="M0 0 C0.33 0 0.66 0 1 0 C1.66 2.31 2.32 4.62 3 7 C5.31 7.33 7.62 7.66 10 8 C10 8.33 10 8.66 10 9 C13.3 9.33 16.6 9.66 20 10 C20 10.33 20 10.66 20 11 C17.77110504 11.05428973 15.54182529 11.09292338 13.3125 11.125 C11.45044922 11.15980469 11.45044922 11.15980469 9.55078125 11.1953125 C5.99413033 10.99967714 2.62729956 10.62729956 0 8 C-0.14115161 5.32941149 -0.04247107 2.67567762 0 0 Z " fill="#3E81CC" transform="translate(115,558)"/>
<path d="M0 0 C0.33 0 0.66 0 1 0 C1.67763476 6.36492651 2.10140689 12.60129333 1.9375 19.00390625 C1.86281031 21.07478953 1.86281031 21.07478953 3 23 C2.0625 25.125 2.0625 25.125 1 27 C-0.67998124 17.73927697 -1.14934774 9.3500992 0 0 Z " fill="#39B6EA" transform="translate(425,513)"/>
<path d="M0 0 C0.33 0 0.66 0 1 0 C1.05447822 2.52113092 1.09389852 5.0410585 1.125 7.5625 C1.14175781 8.26697266 1.15851562 8.97144531 1.17578125 9.69726562 C1.22022044 14.51891822 0.52768004 18.42297438 -1 23 C-3.22644967 15.5369407 -2.63770529 7.25368954 0 0 Z " fill="#FC760C" transform="translate(791,541)"/>
<path d="M0 0 C0.66 0 1.32 0 2 0 C2 5.61 2 11.22 2 17 C1.01 17 0.02 17 -1 17 C-0.67 11.39 -0.34 5.78 0 0 Z " fill="#F2413B" transform="translate(858,528)"/>
<path d="M0 0 C0.33 0 0.66 0 1 0 C1.2358396 5.77807024 0.86783046 10.51324804 -1 16 C-1.33 16 -1.66 16 -2 16 C-2.05384521 13.70858714 -2.09272087 11.41681812 -2.125 9.125 C-2.14820313 7.84882812 -2.17140625 6.57265625 -2.1953125 5.2578125 C-2 2 -2 2 0 0 Z " fill="#FEA409" transform="translate(708,513)"/>
<path d="M0 0 C4.45673159 0.49871064 6.57687178 2.02004362 9.8125 5.0625 C10.60269531 5.79597656 11.39289062 6.52945312 12.20703125 7.28515625 C13.09455078 8.13400391 13.09455078 8.13400391 14 9 C13.67 9.99 13.34 10.98 13 12 C10.83035229 10.19096681 8.66421535 8.37801121 6.5 6.5625 C5.87996094 6.04623047 5.25992188 5.52996094 4.62109375 4.99804688 C3.06197284 3.68735732 1.52871719 2.34602708 0 1 C0 0.67 0 0.34 0 0 Z " fill="#F85735" transform="translate(866,439)"/>
<path d="M0 0 C0.33 0 0.66 0 1 0 C2.00172702 5.96975157 1.94618946 10.16143163 0 16 C-0.36950465 18.32787927 -0.71352467 20.66045145 -1 23 C-1.33 23 -1.66 23 -2 23 C-2.35699374 4.71398747 -2.35699374 4.71398747 0 0 Z " fill="#FEA701" transform="translate(692,488)"/>
<path d="M0 0 C0.33 0 0.66 0 1 0 C0.48594306 7.68897931 -0.0765501 15.34855794 -1 23 C-1.33 23 -1.66 23 -2 23 C-2.33 18.05 -2.66 13.1 -3 8 C-2.34 8 -1.68 8 -1 8 C-0.67 5.36 -0.34 2.72 0 0 Z " fill="#FEBB1B" transform="translate(697,456)"/>
<path d="M0 0 C1.30062431 3.81516464 0.89369853 7.27561763 0.5625 11.25 C0.46066406 12.51328125 0.35882812 13.7765625 0.25390625 15.078125 C0.17011719 16.04234375 0.08632813 17.0065625 0 18 C-0.99 18 -1.98 18 -3 18 C-2.51679152 11.7945858 -1.66681876 6.00054754 0 0 Z " fill="#FAB521" transform="translate(559,432)"/>
<path d="M0 0 C1.0528418 0.01353516 1.0528418 0.01353516 2.12695312 0.02734375 C3.85561525 0.05086296 5.58410145 0.08673287 7.3125 0.125 C4.72846392 2.66335868 3.55181642 3.11985632 -0.140625 3.19921875 C-1.39359375 3.07160156 -2.6465625 2.94398438 -3.9375 2.8125 C-5.83242187 2.63267578 -5.83242187 2.63267578 -7.765625 2.44921875 C-8.72984375 2.34222656 -9.6940625 2.23523438 -10.6875 2.125 C-7.00662647 -0.32891569 -4.24394412 -0.10302759 0 0 Z " fill="#1C60C1" transform="translate(132.6875,565.875)"/>
<path d="M0 0 C0.33 0 0.66 0 1 0 C1 5.28 1 10.56 1 16 C0.34 16 -0.32 16 -1 16 C-1 17.65 -1 19.3 -1 21 C-1.33 21 -1.66 21 -2 21 C-1.49656013 13.97326485 -0.95812032 6.98059091 0 0 Z " fill="#1E8EE2" transform="translate(410,542)"/>
<path d="M0 0 C0.66 0 1.32 0 2 0 C0.95902262 2.7443949 0.02715813 3.9787139 -2.3125 5.8125 C-5.4238722 7.18729237 -6.80876679 7.00295901 -10 6 C-10 5.34 -10 4.68 -10 4 C-8.906875 3.896875 -7.81375 3.79375 -6.6875 3.6875 C-3.01463192 3.00272798 -2.24762314 2.72080696 0 0 Z " fill="#F14840" transform="translate(890,521)"/>
<path d="M0 0 C0 0.99 0 1.98 0 3 C-6.93 3 -13.86 3 -21 3 C-21 2.67 -21 2.34 -21 2 C-20.04738281 1.93941406 -19.09476562 1.87882813 -18.11328125 1.81640625 C-16.23189453 1.69072266 -16.23189453 1.69072266 -14.3125 1.5625 C-13.07113281 1.48128906 -11.82976562 1.40007813 -10.55078125 1.31640625 C-7.01542349 1.00137437 -3.53116526 0 0 0 Z " fill="#1B79DA" transform="translate(343,565)"/>
<path d="M0 0 C-2.30266483 1.77128064 -4.62782434 3.41000773 -7.0625 5 C-9.35468555 6.56063697 -11.1618589 7.957621 -13 10 C-13.66 9.67 -14.32 9.34 -15 9 C-11.15007802 3.6693388 -7.00012355 -0.82354395 0 0 Z " fill="#23A9DD" transform="translate(458,471)"/>
<path d="M0 0 C0.33 0 0.66 0 1 0 C2.125 7.625 2.125 7.625 1 11 C0.77548542 13.22574335 0.59217122 15.45581519 0.4375 17.6875 C0.35371094 18.86699219 0.26992188 20.04648437 0.18359375 21.26171875 C0.12300781 22.16535156 0.06242188 23.06898438 0 24 C-0.33 24 -0.66 24 -1 24 C-1.02720824 21.31243045 -1.0469388 18.62514202 -1.0625 15.9375 C-1.07087891 15.18533203 -1.07925781 14.43316406 -1.08789062 13.65820312 C-1.10808341 8.99366882 -0.77595959 4.60076827 0 0 Z " fill="#FE9503" transform="translate(733,514)"/>
<path d="M0 0 C0.66 0.33 1.32 0.66 2 1 C-0.31 5.29 -2.62 9.58 -5 14 C-6.12837492 9.48650033 -5.87706931 9.07631749 -3.625 5.3125 C-3.16351563 4.52488281 -2.70203125 3.73726563 -2.2265625 2.92578125 C-1 1 -1 1 0 0 Z " fill="#2872D5" transform="translate(221,490)"/>
<path d="M0 0 C0.99 0 1.98 0 3 0 C2.67 4.62 2.34 9.24 2 14 C1.67 14 1.34 14 1 14 C0.67 12.02 0.34 10.04 0 8 C-0.33 8 -0.66 8 -1 8 C-1.125 2.25 -1.125 2.25 0 0 Z " fill="#FB972B" transform="translate(793,520)"/>
<path d="M0 0 C0.33 0 0.66 0 1 0 C1 4.95 1 9.9 1 15 C0.01 14.67 -0.98 14.34 -2 14 C-1.85866501 12.22880197 -1.71176792 10.45804713 -1.5625 8.6875 C-1.48128906 7.70136719 -1.40007813 6.71523438 -1.31640625 5.69921875 C-1 3 -1 3 0 0 Z " fill="#FEA60B" transform="translate(738,475)"/>
<path d="M0 0 C0.33 0 0.66 0 1 0 C0.85780436 2.20857055 0.71108153 4.41684987 0.5625 6.625 C0.48128906 7.85476563 0.40007813 9.08453125 0.31640625 10.3515625 C0.03336056 13.61532388 -0.41038953 16.77943859 -1 20 C-1.33 20 -1.66 20 -2 20 C-2 14.72 -2 9.44 -2 4 C-1.34 4 -0.68 4 0 4 C0 2.68 0 1.36 0 0 Z " fill="#59C4DF" transform="translate(520,547)"/>
<path d="M0 0 C0.66 0.33 1.32 0.66 2 1 C2 4.63 2 8.26 2 12 C1.01 11.67 0.02 11.34 -1 11 C-1.02688151 9.35425434 -1.04634123 7.70838587 -1.0625 6.0625 C-1.07410156 5.14597656 -1.08570313 4.22945312 -1.09765625 3.28515625 C-1 1 -1 1 0 0 Z " fill="#FB8812" transform="translate(766,556)"/>
<path d="M0 0 C0.99 0.33 1.98 0.66 3 1 C3.94921875 3.06640625 3.94921875 3.06640625 4.6875 5.5625 C4.93886719 6.38878906 5.19023437 7.21507812 5.44921875 8.06640625 C5.63097656 8.70449219 5.81273437 9.34257813 6 10 C5.01 10 4.02 10 3 10 C0.96564469 6.27034861 0 4.33094958 0 0 Z " fill="#266FD2" transform="translate(214,543)"/>
<path d="M0 0 C3.5786304 1.65167557 6.74820188 3.78286492 10 6 C8.375 6.8125 8.375 6.8125 6 7 C2.75 4.6875 2.75 4.6875 0 2 C0 1.34 0 0.68 0 0 Z " fill="#2672D2" transform="translate(224,558)"/>
<path d="M0 0 C3.94637474 0.56376782 6.83196811 1.5359752 10 4 C10.8125 6.6875 10.8125 6.6875 11 9 C10.113125 8.2575 9.22625 7.515 8.3125 6.75 C5.5701154 4.46359384 2.79616787 2.22048625 0 0 Z " fill="#267DDC" transform="translate(270,489)"/>
<path d="M0 0 C0.99 0.33 1.98 0.66 3 1 C1.02 3.97 -0.96 6.94 -3 10 C-4 6 -4 6 -2.0625 2.75 C-1.381875 1.8425 -0.70125 0.935 0 0 Z " fill="#24A8E1" transform="translate(436,486)"/>
<path d="M0 0 C0.99 0 1.98 0 3 0 C2.67 4.29 2.34 8.58 2 13 C1.67 13 1.34 13 1 13 C0.67 8.71 0.34 4.42 0 0 Z " fill="#FEB01A" transform="translate(698,432)"/>
<path d="M0 0 C0.33 0 0.66 0 1 0 C0.67 5.61 0.34 11.22 0 17 C-0.33 17 -0.66 17 -1 17 C-1.33 12.38 -1.66 7.76 -2 3 C-1.34 3 -0.68 3 0 3 C0 2.01 0 1.02 0 0 Z " fill="#F98D34" transform="translate(793,536)"/>
<path d="M0 0 C0.99 0.33 1.98 0.66 3 1 C3 1.66 3 2.32 3 3 C-3.625 6 -3.625 6 -7 6 C-2.25 1.125 -2.25 1.125 0 0 Z " fill="#F84E42" transform="translate(824,527)"/>
<path d="M0 0 C1.32 0.66 2.64 1.32 4 2 C3.01 3.485 3.01 3.485 2 5 C1.67 5 1.34 5 1 5 C0.67 6.98 0.34 8.96 0 11 C-0.33 11 -0.66 11 -1 11 C-1.02688151 9.35425434 -1.04634123 7.70838587 -1.0625 6.0625 C-1.07410156 5.14597656 -1.08570313 4.22945312 -1.09765625 3.28515625 C-1 1 -1 1 0 0 Z " fill="#447CD4" transform="translate(148,524)"/>
<path d="M0 0 C0.57234375 0.21527344 1.1446875 0.43054688 1.734375 0.65234375 C0.30425527 1.51881042 -1.13503119 2.37016204 -2.578125 3.21484375 C-3.77888672 3.92833984 -3.77888672 3.92833984 -5.00390625 4.65625 C-7.265625 5.65234375 -7.265625 5.65234375 -10.265625 4.65234375 C-9.02618224 3.78292881 -7.77355441 2.93228918 -6.515625 2.08984375 C-5.81953125 1.61417969 -5.1234375 1.13851563 -4.40625 0.6484375 C-2.265625 -0.34765625 -2.265625 -0.34765625 0 0 Z " fill="#2576D8" transform="translate(259.265625,489.34765625)"/>
<path d="M0 0 C0.33 0 0.66 0 1 0 C0.88590407 1.45922693 0.75834456 2.91740598 0.625 4.375 C0.55539062 5.18710937 0.48578125 5.99921875 0.4140625 6.8359375 C0 9 0 9 -2 11 C-2.99 10.67 -3.98 10.34 -5 10 C-3.25 5.125 -3.25 5.125 -1 4 C-0.34786708 1.97536745 -0.34786708 1.97536745 0 0 Z " fill="#FA8C2E" transform="translate(791,557)"/>
<path d="M0 0 C0.33 0 0.66 0 1 0 C0.8864371 1.64666203 0.75882619 3.29236082 0.625 4.9375 C0.52058594 6.31228516 0.52058594 6.31228516 0.4140625 7.71484375 C0.27742187 8.46894531 0.14078125 9.22304688 0 10 C-0.99 10.495 -0.99 10.495 -2 11 C-2.95465783 8.83032311 -3.14401212 7.43671207 -2.3984375 5.17578125 C-1.64129615 3.4315257 -0.82390802 1.71372869 0 0 Z " fill="#FBB018" transform="translate(568,556)"/>
<path d="M0 0 C3.3 1.98 6.6 3.96 10 6 C6 7 6 7 2.75 5.25 C1.8425 4.5075 0.935 3.765 0 3 C0 2.01 0 1.02 0 0 Z " fill="#23A6DD" transform="translate(438,556)"/>
<path d="M0 0 C0.33 0 0.66 0 1 0 C1.33 5.28 1.66 10.56 2 16 C1.34 16.33 0.68 16.66 0 17 C-1.23104155 13.31599416 -0.90767252 10.08525024 -0.5625 6.25 C-0.46066406 5.07953125 -0.35882812 3.9090625 -0.25390625 2.703125 C-0.17011719 1.81109375 -0.08632813 0.9190625 0 0 Z " fill="#FEA923" transform="translate(733,525)"/>
<path d="M0 0 C0.33 0 0.66 0 1 0 C1.33 2.64 1.66 5.28 2 8 C1.34 8 0.68 8 0 8 C-0.33 10.97 -0.66 13.94 -1 17 C-2.05428991 12.78284036 -1.78147146 10.47924389 -1.0625 6.25 C-0.86785156 5.07953125 -0.67320312 3.9090625 -0.47265625 2.703125 C-0.31667969 1.81109375 -0.16070313 0.9190625 0 0 Z " fill="#F2BB39" transform="translate(551,478)"/>
<path d="M0 0 C0.6875 1.6875 0.6875 1.6875 1 4 C-0.25 6.6875 -0.25 6.6875 -2 9 C-2.99 9.33 -3.98 9.66 -5 10 C-3.66511872 6.40608886 -2.03977277 3.24509304 0 0 Z " fill="#F33E38" transform="translate(856,549)"/>
<path d="M0 0 C1.65 0 3.3 0 5 0 C5 0.66 5 1.32 5 2 C7.97 2 10.94 2 14 2 C14 2.33 14 2.66 14 3 C12.04233719 3.08082094 10.08373272 3.13910778 8.125 3.1875 C6.48917969 3.23970703 6.48917969 3.23970703 4.8203125 3.29296875 C3.88960938 3.19628906 2.95890625 3.09960938 2 3 C1.34 2.01 0.68 1.02 0 0 Z " fill="#1DADDC" transform="translate(462,542)"/>
<path d="M0 0 C0.33 0 0.66 0 1 0 C0.67 5.94 0.34 11.88 0 18 C-0.33 18 -0.66 18 -1 18 C-2.51708428 5.33029613 -2.51708428 5.33029613 0 0 Z " fill="#FEBC22" transform="translate(690,519)"/>
<path d="M0 0 C0.33 0 0.66 0 1 0 C1.19294408 4.82360189 0.75747614 8.49646738 -1 13 C-1.33 13 -1.66 13 -2 13 C-2.19294408 8.17639811 -1.75747614 4.50353262 0 0 Z " fill="#2085E1" transform="translate(351,505)"/>
<path d="M0 0 C0.33 0 0.66 0 1 0 C0.67 4.95 0.34 9.9 0 15 C-0.33 15 -0.66 15 -1 15 C-1.22211116 13.06403108 -1.42722992 11.12610672 -1.625 9.1875 C-1.74101563 8.10855469 -1.85703125 7.02960938 -1.9765625 5.91796875 C-2 3 -2 3 0 0 Z " fill="#FC9831" transform="translate(797,504)"/>
<path d="M0 0 C0.99 0 1.98 0 3 0 C2.29445932 3.66881155 0.72264494 6.70450534 -1 10 C-2.46726798 6.18510326 -1.43336419 3.70988378 0 0 Z " fill="#1AA5E1" transform="translate(429,502)"/>
<path d="M0 0 C0.99 0.33 1.98 0.66 3 1 C2.34 1 1.68 1 1 1 C1 1.66 1 2.32 1 3 C-4.41176471 7 -4.41176471 7 -7 7 C-5.65117186 2.95351557 -3.65173931 2.04497401 0 0 Z " fill="#1FA8DD" transform="translate(469,490)"/>
<path d="M0 0 C0.33 0 0.66 0 1 0 C1.38063221 2.3260857 1.71269945 4.66055264 2 7 C1.67 7.33 1.34 7.66 1 8 C0.76807135 9.51469448 0.58784762 11.03754562 0.4375 12.5625 C0.35371094 13.38878906 0.26992188 14.21507812 0.18359375 15.06640625 C0.12300781 15.70449219 0.06242188 16.34257812 0 17 C-0.33 17 -0.66 17 -1 17 C-2.0748291 10.72532201 -1.88341198 6.09339169 0 0 Z " fill="#FEB91B" transform="translate(694,479)"/>
<path d="M0 0 C0.99 0.33 1.98 0.66 3 1 C-0.625 6.875 -0.625 6.875 -4 8 C-2.87548273 5.0280615 -1.77706209 2.66559313 0 0 Z " fill="#2689E1" transform="translate(356,496)"/>
<path d="M0 0 C0.99 0 1.98 0 3 0 C2.67 3.63 2.34 7.26 2 11 C1.67 11 1.34 11 1 11 C0.67 7.37 0.34 3.74 0 0 Z " fill="#FEAF1A" transform="translate(738,471)"/>
<path d="M0 0 C0.66 0 1.32 0 2 0 C0.68775452 3.93673644 -0.91910327 6.22719294 -4 9 C-3.35494404 5.51669784 -2.01782732 2.90567134 0 0 Z " fill="#25ADD9" transform="translate(490,566)"/>
<path d="M0 0 C0.33 0 0.66 0 1 0 C1.33 3.3 1.66 6.6 2 10 C1.34 10 0.68 10 0 10 C-0.33 10.99 -0.66 11.98 -1 13 C-0.67 8.71 -0.34 4.42 0 0 Z " fill="#419EEC" transform="translate(322,509)"/>
<path d="M0 0 C1.4835001 0.42257276 2.96176424 0.86356322 4.4375 1.3125 C5.67306641 1.67794922 5.67306641 1.67794922 6.93359375 2.05078125 C7.61550781 2.36402344 8.29742187 2.67726563 9 3 C9.33 3.99 9.66 4.98 10 6 C8.02 5.34 6.04 4.68 4 4 C4 3.34 4 2.68 4 2 C2.68 1.67 1.36 1.34 0 1 C0 0.67 0 0.34 0 0 Z " fill="#2390E3" transform="translate(376,488)"/>
<path d="M0 0 C0.66 0.33 1.32 0.66 2 1 C2 1.66 2 2.32 2 3 C1.071875 3.45375 0.14375 3.9075 -0.8125 4.375 C-4.03921389 5.9421633 -4.03921389 5.9421633 -7 8 C-5.50902342 4.2047869 -3.24299151 2.38957269 0 0 Z " fill="#3885D8" transform="translate(187,468)"/>
<path d="M0 0 C0 0.99 0 1.98 0 3 C-3.96 2.67 -7.92 2.34 -12 2 C-12 1.67 -12 1.34 -12 1 C-7.915021 0.45533613 -4.1274515 0 0 0 Z " fill="#FCB41B" transform="translate(576,426)"/>
<path d="M0 0 C2.95409701 1.37154504 5.44008376 2.98863724 8 5 C4.28400809 5.20086443 3.22791555 5.1519437 0 3 C0 2.01 0 1.02 0 0 Z " fill="#FD9111" transform="translate(715,562)"/>
<path d="M0 0 C1.9375 0.3125 1.9375 0.3125 4 1 C4.33 1.99 4.66 2.98 5 4 C5.66 4.33 6.32 4.66 7 5 C5.68 5 4.36 5 3 5 C1.25 2.5 1.25 2.5 0 0 Z " fill="#2D79D9" transform="translate(218,553)"/>
<path d="M0 0 C1.32 0.33 2.64 0.66 4 1 C1.03 3.475 1.03 3.475 -2 6 C-2.66 5.67 -3.32 5.34 -4 5 C-2.68 3.35 -1.36 1.7 0 0 Z " fill="#248BE1" transform="translate(361,472)"/>
<path d="M0 0 C0.33 0 0.66 0 1 0 C0.67 4.29 0.34 8.58 0 13 C-0.33 13 -0.66 13 -1 13 C-1.33 10.03 -1.66 7.06 -2 4 C-1.34 4 -0.68 4 0 4 C0 2.68 0 1.36 0 0 Z " fill="#3E9CE7" transform="translate(345,551)"/>
<path d="M0 0 C3.08089673 2.77280706 4.68775452 5.06326356 6 9 C3 8 3 8 1.3125 5.0625 C0 2 0 2 0 0 Z " fill="#329EE7" transform="translate(408,475)"/>
<path d="M0 0 C2.1640625 -0.29296875 2.1640625 -0.29296875 4.625 -0.1875 C5.44226563 -0.16042969 6.25953125 -0.13335937 7.1015625 -0.10546875 C8.04128906 -0.05326172 8.04128906 -0.05326172 9 0 C9 0.33 9 0.66 9 1 C5.37 1.66 1.74 2.32 -2 3 C-1.34 2.01 -0.68 1.02 0 0 Z " fill="#1CA8DA" transform="translate(461,468)"/>
<path d="M0 0 C2.31 0.66 4.62 1.32 7 2 C6.67 2.99 6.34 3.98 6 5 C6 4.34 6 3.68 6 3 C4.02 3 2.04 3 0 3 C0 2.01 0 1.02 0 0 Z " fill="#2774CB" transform="translate(152,426)"/>
<path d="M0 0 C0.33 0 0.66 0 1 0 C1 1.65 1 3.3 1 5 C0.67 5 0.34 5 0 5 C0 3.35 0 1.7 0 0 Z " fill="#FFC300" transform="translate(664,482)"/>
<path d="" fill="#E2E2E2" transform="translate(0,0)"/>
<path d="" fill="#FFFFFF" transform="translate(0,0)"/>
<path d="M0 0 C0.99 0.495 0.99 0.495 2 1 C1.01 1.495 1.01 1.495 0 2 C0 1.34 0 0.68 0 0 Z " fill="#FFBF00" transform="translate(619,499)"/>
<path d="M0 0 C2 1 2 1 2 1 Z " fill="#00FFFF" transform="translate(262,571)"/>
<path d="" fill="#D4956A" transform="translate(0,0)"/>
<path d="" fill="#2040DF" transform="translate(0,0)"/>
<path d="" fill="#FFFF00" transform="translate(0,0)"/>
<path d="M0 0 C2 1 2 1 2 1 Z " fill="#00FFFF" transform="translate(259,544)"/>
<path d="" fill="#40BFFF" transform="translate(0,0)"/>
<path d="" fill="#FFFF00" transform="translate(0,0)"/>
<path d="" fill="#FFFF00" transform="translate(0,0)"/>
<path d="" fill="#FFFF00" transform="translate(0,0)"/>
<path d="M0 0 C2 1 2 1 2 1 Z " fill="#00FFFF" transform="translate(373,465)"/>
<path d="" fill="#000000" transform="translate(0,0)"/>
<path d="" fill="#00FFFF" transform="translate(0,0)"/>
<path d="" fill="#FF0000" transform="translate(0,0)"/>
<path d="" fill="#FF0000" transform="translate(0,0)"/>
<path d="" fill="#FFFF00" transform="translate(0,0)"/>
<path d="" fill="#00FFFF" transform="translate(0,0)"/>
<path d="" fill="#FF0000" transform="translate(0,0)"/>
<path d="" fill="#00FFFF" transform="translate(0,0)"/>
<path d="" fill="#FF8000" transform="translate(0,0)"/>
<path d="" fill="#FF8000" transform="translate(0,0)"/>
<path d="" fill="#8080FF" transform="translate(0,0)"/>
<path d="" fill="#8080FF" transform="translate(0,0)"/>
<path d="" fill="#BFBF80" transform="translate(0,0)"/>
<path d="" fill="#00FFFF" transform="translate(0,0)"/>
<path d="" fill="#FFFF00" transform="translate(0,0)"/>
<path d="" fill="#55AAAA" transform="translate(0,0)"/>
<path d="" fill="#FFAA00" transform="translate(0,0)"/>
<path d="" fill="#FFFF00" transform="translate(0,0)"/>
<path d="" fill="#80FFFF" transform="translate(0,0)"/>
<path d="" fill="#00FFFF" transform="translate(0,0)"/>
<path d="" fill="#0000FF" transform="translate(0,0)"/>
<path d="" fill="#00FFFF" transform="translate(0,0)"/>
<path d="" fill="#FFFF00" transform="translate(0,0)"/>
<path d="" fill="#FFFF00" transform="translate(0,0)"/>
<path d="" fill="#00FFFF" transform="translate(0,0)"/>
<path d="" fill="#8080FF" transform="translate(0,0)"/>
<path d="" fill="#00FFFF" transform="translate(0,0)"/>
<path d="" fill="#FFFFFF" transform="translate(0,0)"/>
<path d="" fill="#FFFF00" transform="translate(0,0)"/>
<path d="" fill="#FF0000" transform="translate(0,0)"/>
<path d="" fill="#00FFFF" transform="translate(0,0)"/>
<path d="" fill="#FF0000" transform="translate(0,0)"/>
<path d="" fill="#FF5555" transform="translate(0,0)"/>
<path d="" fill="#00FFFF" transform="translate(0,0)"/>
<path d="" fill="#FF0000" transform="translate(0,0)"/>
<path d="" fill="#FFFF00" transform="translate(0,0)"/>
<path d="" fill="#FFFF00" transform="translate(0,0)"/>
<path d="" fill="#FF0000" transform="translate(0,0)"/>
<path d="" fill="#FFFF00" transform="translate(0,0)"/>
<path d="" fill="#FFFF00" transform="translate(0,0)"/>
<path d="" fill="#FF0000" transform="translate(0,0)"/>
<path d="" fill="#FF8000" transform="translate(0,0)"/>
<path d="" fill="#00FFFF" transform="translate(0,0)"/>
<path d="" fill="#FF8080" transform="translate(0,0)"/>
<path d="" fill="#FF8000" transform="translate(0,0)"/>
<path d="" fill="#FFFF00" transform="translate(0,0)"/>
<path d="" fill="#FF8000" transform="translate(0,0)"/>
<path d="" fill="#FFFF00" transform="translate(0,0)"/>
<path d="" fill="#FF8000" transform="translate(0,0)"/>
<path d="" fill="#FFFF00" transform="translate(0,0)"/>
<path d="" fill="#00FFFF" transform="translate(0,0)"/>
<path d="" fill="#0080FF" transform="translate(0,0)"/>
<path d="" fill="#00FFFF" transform="translate(0,0)"/>
<path d="" fill="#FF8000" transform="translate(0,0)"/>
<path d="" fill="#FFFF00" transform="translate(0,0)"/>
<path d="" fill="#FF0000" transform="translate(0,0)"/>
<path d="" fill="#FF8000" transform="translate(0,0)"/>
<path d="" fill="#FFFF00" transform="translate(0,0)"/>
<path d="" fill="#FF5555" transform="translate(0,0)"/>
<path d="" fill="#FFFF00" transform="translate(0,0)"/>
<path d="" fill="#FF8080" transform="translate(0,0)"/>
<path d="" fill="#FF0000" transform="translate(0,0)"/>
<path d="" fill="#FF0000" transform="translate(0,0)"/>
<path d="" fill="#FFFF00" transform="translate(0,0)"/>
<path d="" fill="#FF8080" transform="translate(0,0)"/>
<path d="" fill="#00FFFF" transform="translate(0,0)"/>
<path d="" fill="#FF8040" transform="translate(0,0)"/>
<path d="" fill="#55AAFF" transform="translate(0,0)"/>
<path d="" fill="#FFFF00" transform="translate(0,0)"/>
<path d="" fill="#00FFFF" transform="translate(0,0)"/>
<path d="" fill="#00FFFF" transform="translate(0,0)"/>
<path d="" fill="#00FFFF" transform="translate(0,0)"/>
<path d="" fill="#8080FF" transform="translate(0,0)"/>
<path d="" fill="#00FFFF" transform="translate(0,0)"/>
<path d="" fill="#00FFFF" transform="translate(0,0)"/>
<path d="" fill="#00FFFF" transform="translate(0,0)"/>
<path d="" fill="#FFCC33" transform="translate(0,0)"/>
<path d="" fill="#00FFFF" transform="translate(0,0)"/>
<path d="" fill="#00FFFF" transform="translate(0,0)"/>
<path d="" fill="#00FFFF" transform="translate(0,0)"/>
<path d="" fill="#8080FF" transform="translate(0,0)"/>
<path d="" fill="#FFFF00" transform="translate(0,0)"/>
<path d="" fill="#FFFF00" transform="translate(0,0)"/>
</svg>
